<?xml version="1.0" encoding="utf-8"?>
<!-- Generator: Adobe Illustrator 25.2.3, SVG Export Plug-In . SVG Version: 6.00 Build 0)  -->
<svg version="1.1" id="Calque_1" xmlns="http://www.w3.org/2000/svg" xmlns:xlink="http://www.w3.org/1999/xlink" x="0px" y="0px"
	 viewBox="0 0 258.6 141.5" style="enable-background:new 0 0 258.6 141.5;" xml:space="preserve">
<style type="text/css">
	.st0{fill:url(#SVGID_1_);}
	.st1{fill:url(#SVGID_2_);}
	.st2{fill:url(#SVGID_3_);}
</style>
<linearGradient id="SVGID_1_" gradientUnits="userSpaceOnUse" x1="6723.6147" y1="1159.8188" x2="6592.8706" y2="1118.3826" gradientTransform="matrix(0.3215 0.9469 -0.9469 0.3215 -857.4031 -6599.9111)">
	<stop  offset="0" style="stop-color:#35348A"/>
	<stop  offset="3.629284e-02" style="stop-color:#433387"/>
	<stop  offset="0.1054" style="stop-color:#693080"/>
	<stop  offset="0.1862" style="stop-color:#9D2C77"/>
	<stop  offset="0.2371" style="stop-color:#B32C62"/>
	<stop  offset="0.3084" style="stop-color:#CD2D49"/>
	<stop  offset="0.3511" style="stop-color:#D72D40"/>
	<stop  offset="0.4988" style="stop-color:#DF232B"/>
	<stop  offset="0.5957" style="stop-color:#E21F23"/>
	<stop  offset="0.6237" style="stop-color:#E32926"/>
	<stop  offset="0.6715" style="stop-color:#E4442D"/>
	<stop  offset="0.7181" style="stop-color:#E66536"/>
	<stop  offset="0.7718" style="stop-color:#E98E3C"/>
	<stop  offset="0.8511" style="stop-color:#EED147"/>
	<stop  offset="0.8744" style="stop-color:#EFD14F"/>
	<stop  offset="0.9105" style="stop-color:#F0D165"/>
	<stop  offset="0.9255" style="stop-color:#F1D170"/>
	<stop  offset="0.95" style="stop-color:#F4D565"/>
	<stop  offset="0.9926" style="stop-color:#FDE149"/>
	<stop  offset="1" style="stop-color:#FFE343"/>
</linearGradient>
<path class="st0" d="M258.6,126.1c-11.6,8.4-25.7,13.2-40.5,13.2c-11.7,0-23.2-3-33.5-8.8c-33-18.5-44.7-60.4-26.2-93.4
	c12.1-21.6,35-35,59.8-35c11.7,0,23.3,3,33.5,8.8c2.4,1.3,4.6,2.8,6.8,4.3l0,5.5c-2.8-2.2-5.8-4.3-8.9-6c-9.6-5.4-20.4-8.2-31.4-8.2
	c-23.2,0-44.7,12.6-56.1,32.8c-17.3,30.9-6.3,70.1,24.6,87.5c9.6,5.4,20.4,8.2,31.4,8.2c15,0,29.2-5.2,40.5-14.3L258.6,126.1z"/>
<linearGradient id="SVGID_2_" gradientUnits="userSpaceOnUse" x1="14084.1406" y1="-9677.3984" x2="13953.3984" y2="-9718.835" gradientTransform="matrix(-0.2864 0.9581 0.9581 0.2864 13361.8789 -10583.4766)">
	<stop  offset="0" style="stop-color:#35348A"/>
	<stop  offset="3.629284e-02" style="stop-color:#433387"/>
	<stop  offset="0.1054" style="stop-color:#693080"/>
	<stop  offset="0.1862" style="stop-color:#9D2C77"/>
	<stop  offset="0.2371" style="stop-color:#B32C62"/>
	<stop  offset="0.3084" style="stop-color:#CD2D49"/>
	<stop  offset="0.3511" style="stop-color:#D72D40"/>
	<stop  offset="0.4988" style="stop-color:#DF232B"/>
	<stop  offset="0.5957" style="stop-color:#E21F23"/>
	<stop  offset="0.6237" style="stop-color:#E32926"/>
	<stop  offset="0.6715" style="stop-color:#E4442D"/>
	<stop  offset="0.7181" style="stop-color:#E66536"/>
	<stop  offset="0.7718" style="stop-color:#E98E3C"/>
	<stop  offset="0.8511" style="stop-color:#EED147"/>
	<stop  offset="0.8744" style="stop-color:#EFD14F"/>
	<stop  offset="0.9105" style="stop-color:#F0D165"/>
	<stop  offset="0.9255" style="stop-color:#F1D170"/>
	<stop  offset="0.95" style="stop-color:#F4D565"/>
	<stop  offset="0.9926" style="stop-color:#FDE149"/>
	<stop  offset="1" style="stop-color:#FFE343"/>
</linearGradient>
<path class="st1" d="M0,16.8c2.1-1.7,4.4-3.3,6.8-4.7C17.6,5.5,29.9,2,42.5,2c24.1,0,46,12.3,58.6,32.8
	c19.7,32.3,9.5,74.5-22.8,94.3c-10.8,6.6-23.1,10.1-35.7,10.1c0,0,0,0,0,0c-15.8,0-30.6-5.3-42.5-14.7l0-5.7
	c11.5,10.2,26.5,16,42.5,16h0c11.8,0,23.3-3.3,33.4-9.4c30.2-18.5,39.8-58.1,21.3-88.3C85.6,17.8,65.1,6.3,42.5,6.3
	c-11.8,0-23.3,3.3-33.4,9.4c-3.3,2-6.3,4.2-9.1,6.7L0,16.8z"/>
<linearGradient id="SVGID_3_" gradientUnits="userSpaceOnUse" x1="6701.4819" y1="1230.9697" x2="6566.6001" y2="1188.222" gradientTransform="matrix(0.3215 0.9469 -0.9469 0.3215 -857.4031 -6599.9111)">
	<stop  offset="0" style="stop-color:#35348A"/>
	<stop  offset="3.629284e-02" style="stop-color:#433387"/>
	<stop  offset="0.1054" style="stop-color:#693080"/>
	<stop  offset="0.1862" style="stop-color:#9D2C77"/>
	<stop  offset="0.2371" style="stop-color:#B32C62"/>
	<stop  offset="0.3084" style="stop-color:#CD2D49"/>
	<stop  offset="0.3511" style="stop-color:#D72D40"/>
	<stop  offset="0.4988" style="stop-color:#DF232B"/>
	<stop  offset="0.5957" style="stop-color:#E21F23"/>
	<stop  offset="0.6237" style="stop-color:#E32926"/>
	<stop  offset="0.6715" style="stop-color:#E4442D"/>
	<stop  offset="0.7181" style="stop-color:#E66536"/>
	<stop  offset="0.7718" style="stop-color:#E98E3C"/>
	<stop  offset="0.8511" style="stop-color:#EED147"/>
	<stop  offset="0.8744" style="stop-color:#EFD14F"/>
	<stop  offset="0.9105" style="stop-color:#F0D165"/>
	<stop  offset="0.9255" style="stop-color:#F1D170"/>
	<stop  offset="0.95" style="stop-color:#F4D565"/>
	<stop  offset="0.9926" style="stop-color:#FDE149"/>
	<stop  offset="1" style="stop-color:#FFE343"/>
</linearGradient>
<path class="st2" d="M130,141.5c-12,0-24-3.1-34.6-9.1C79,123.2,67.1,108.1,62,89.9c-5.1-18.2-2.8-37.3,6.4-53.8
	C80.9,13.8,104.6,0,130.1,0c12,0,24,3.1,34.5,9.1c16.5,9.2,28.4,24.4,33.5,42.6c5.1,18.2,2.8,37.3-6.4,53.8
	C179.2,127.7,155.6,141.5,130,141.5z M130.1,8.7c-22.5,0-43.2,12.1-54.2,31.7c-8.1,14.5-10.1,31.2-5.6,47.2
	c4.5,16,14.9,29.2,29.4,37.3c9.3,5.2,19.7,7.9,30.3,7.9c22.4,0,43.2-12.1,54.2-31.7c8.1-14.5,10.1-31.2,5.6-47.2
	c-4.5-16-14.9-29.2-29.4-37.3C151.2,11.4,140.7,8.7,130.1,8.7z"/>
</svg>
